<svg xmlns="http://www.w3.org/2000/svg" viewBox="0 0 64 64" width="64" height="64"
    preserveAspectRatio="xMidYMid meet"
    style="width: 100%; height: 100%; transform: translate3d(0px, 0px, 0px);">
    <defs>
        <clipPath id="__lottie_element_2">
            <rect width="64" height="64" x="0" y="0"></rect>
        </clipPath>
        <clipPath id="__lottie_element_7">
            <path fill="#ffffff" clip-rule="nonzero"
                d=" M0.6726152896881104,-1.034000039100647 C0.6726152896881104,-1.034000039100647 1.0476152896881104,5.545000076293945 1.0476152896881104,5.545000076293945 C1.0476152896881104,5.545000076293945 48.48561477661133,5.545000076293945 48.48561477661133,5.545000076293945 C48.48561477661133,5.545000076293945 49.98561477661133,-1.034000039100647 49.98561477661133,-1.034000039100647 C49.98561477661133,-1.034000039100647 0.6726152896881104,-1.034000039100647 0.6726152896881104,-1.034000039100647"
                fill-opacity="1"></path>
        </clipPath>
    </defs>
    <g clip-path="url(#__lottie_element_2)">
        <g transform="matrix(1,0,0,1,6.612998962402344,2.4629993438720703)" opacity="1"
            style="display: block;">
            <g opacity="1" transform="matrix(1,0,0,1,17.71500015258789,17.714000701904297)">
                <path fill="rgb(133,202,248)" fill-opacity="1"
                    d=" M15.219964027404785,-6.062878608703613 C15.219964027404785,-6.062878608703613 0.06996379792690277,9.086121559143066 0.06996379792690277,9.086121559143066 C0.06996379792690277,9.086121559143066 -10.210036277770996,-1.1928786039352417 -10.210036277770996,-1.1928786039352417 C-10.210036277770996,-1.1928786039352417 4.9399638175964355,-16.342878341674805 4.9399638175964355,-16.342878341674805 C4.9399638175964355,-16.342878341674805 15.219964027404785,-6.062878608703613 15.219964027404785,-6.062878608703613z"></path>
                <path stroke-linecap="round" stroke-linejoin="round" fill-opacity="0"
                    stroke="rgb(141,108,159)" stroke-opacity="1" stroke-width="2"
                    d=" M15.219964027404785,-6.062878608703613 C15.219964027404785,-6.062878608703613 0.06996379792690277,9.086121559143066 0.06996379792690277,9.086121559143066 C0.06996379792690277,9.086121559143066 -10.210036277770996,-1.1928786039352417 -10.210036277770996,-1.1928786039352417 C-10.210036277770996,-1.1928786039352417 4.9399638175964355,-16.342878341674805 4.9399638175964355,-16.342878341674805 C4.9399638175964355,-16.342878341674805 15.219964027404785,-6.062878608703613 15.219964027404785,-6.062878608703613z"></path>
            </g>
        </g>
        <g transform="matrix(1,0,0,1,14.382999420166016,-2.1170005798339844)" opacity="1"
            style="display: block;">
            <g opacity="1" transform="matrix(1,0,0,1,21.617000579833984,21.617000579833984)">
                <path fill="rgb(249,238,222)" fill-opacity="1"
                    d=" M19.725696563720703,-2.7233073711395264 C19.725696563720703,-2.7233073711395264 0.14749978482723236,16.854888916015625 0.14749978482723236,16.854888916015625 C0.14749978482723236,16.854888916015625 -13.137683868408203,3.569705009460449 -13.137683868408203,3.569705009460449 C-13.137683868408203,3.569705009460449 6.439512252807617,-16.00849151611328 6.439512252807617,-16.00849151611328 C6.439512252807617,-16.00849151611328 19.725696563720703,-2.7233073711395264 19.725696563720703,-2.7233073711395264z"></path>
                <path stroke-linecap="round" stroke-linejoin="round" fill-opacity="0"
                    stroke="rgb(141,108,159)" stroke-opacity="1" stroke-width="2"
                    d=" M19.725696563720703,-2.7233073711395264 C19.725696563720703,-2.7233073711395264 0.14749978482723236,16.854888916015625 0.14749978482723236,16.854888916015625 C0.14749978482723236,16.854888916015625 -13.137683868408203,3.569705009460449 -13.137683868408203,3.569705009460449 C-13.137683868408203,3.569705009460449 6.439512252807617,-16.00849151611328 6.439512252807617,-16.00849151611328 C6.439512252807617,-16.00849151611328 19.725696563720703,-2.7233073711395264 19.725696563720703,-2.7233073711395264z"></path>
            </g>
        </g>
        <g transform="matrix(1,0,0,0.9945880174636841,-0.4890003204345703,1.7715225219726562)"
            opacity="1" style="display: block;">
            <g opacity="1" transform="matrix(1,0,0,1,35.48899841308594,31.54199981689453)">
                <path fill="rgb(194,205,231)" fill-opacity="1"
                    d=" M19,14 C19,14 -22,14 -22,14 C-22,14 -25,-14 -25,-14 C-25,-14 25,-14 25,-14 C25,-14 19,14 19,14z"></path>
            </g>
            <g opacity="1" transform="matrix(1,0,0,1,36.48899841308594,15.541999816894531)">
                <path fill="rgb(248,226,173)" fill-opacity="1"
                    d=" M-26,-2 C-26,-2 26,-2 26,-2 C26,-2 26,2 26,2 C26,2 -26,2 -26,2 C-26,2 -26,-2 -26,-2z"></path>
            </g>
            <g opacity="1" transform="matrix(1,0,0,1,3.489000082015991,3.5420000553131104)">
                <path fill="rgb(241,131,164)" fill-opacity="1"
                    d=" M0,-2 C-1.1039999723434448,-2 -2,-1.1039999723434448 -2,0 C-2,1.1039999723434448 -1.1039999723434448,2 0,2 C1.1039999723434448,2 2,1.1039999723434448 2,0 C2,-1.1039999723434448 1.1039999723434448,-2 0,-2z"></path>
            </g>
            <g opacity="1" transform="matrix(1,0,0,1,25.48900032043457,53.54199981689453)">
                <path fill="rgb(236,120,153)" fill-opacity="1"
                    d=" M0,-4 C-2.2090001106262207,-4 -4,-2.2090001106262207 -4,0 C-4,2.2090001106262207 -2.2090001106262207,4 0,4 C2.2090001106262207,4 4,2.2090001106262207 4,0 C4,-2.2090001106262207 2.2090001106262207,-4 0,-4z"></path>
            </g>
            <g opacity="1" transform="matrix(1,0,0,1,25.48900032043457,53.54199981689453)">
                <path fill="rgb(241,131,164)" fill-opacity="1"
                    d=" M0,-2 C-1.1039999723434448,-2 -2,-1.1039999723434448 -2,0 C-2,1.1039999723434448 -1.1039999723434448,2 0,2 C1.1039999723434448,2 2,1.1039999723434448 2,0 C2,-1.1039999723434448 1.1039999723434448,-2 0,-2z"></path>
            </g>
            <g opacity="1" transform="matrix(1,0,0,1,45.48899841308594,53.54199981689453)">
                <path fill="rgb(236,120,153)" fill-opacity="1"
                    d=" M0,-4 C-2.2090001106262207,-4 -4,-2.2090001106262207 -4,0 C-4,2.2090001106262207 -2.2090001106262207,4 0,4 C2.2090001106262207,4 4,2.2090001106262207 4,0 C4,-2.2090001106262207 2.2090001106262207,-4 0,-4z"></path>
            </g>
            <g opacity="1" transform="matrix(1,0,0,1,16.48900032043457,31.54199981689453)">
                <path fill="rgb(206,215,236)" fill-opacity="1"
                    d=" M6,14 C6,14 -4,14 -4,14 C-4,14 -6,-14 -6,-14 C-6,-14 5,-14 5,-14 C5,-14 6,14 6,14z"></path>
            </g>
            <g opacity="1" transform="matrix(1,0,0,1,35.48899841308594,31.54199981689453)">
                <path fill="rgb(181,196,223)" fill-opacity="1"
                    d=" M-25,-14 C-25,-14 -25,-12 -25,-12 C-25,-10.343000411987305 -23.656999588012695,-9 -22,-9 C-22,-9 9,-9 9,-9 C9,-9 7,14 7,14 C7,14 19,14 19,14 C19,14 25,-14 25,-14 C25,-14 -25,-14 -25,-14z"></path>
            </g>
            <g opacity="1" transform="matrix(1,0,0,1,45.48899841308594,53.54199981689453)">
                <path fill="rgb(241,131,164)" fill-opacity="1"
                    d=" M0,-2 C-1.1039999723434448,-2 -2,-1.1039999723434448 -2,0 C-2,1.1039999723434448 -1.1039999723434448,2 0,2 C1.1039999723434448,2 2,1.1039999723434448 2,0 C2,-1.1039999723434448 1.1039999723434448,-2 0,-2z"></path>
            </g>
            <g opacity="1" transform="matrix(1,0,0,1,49.48899841308594,41.54199981689453)">
                <path fill="rgb(141,108,159)" fill-opacity="1"
                    d=" M-2,1 C-2,1 2,1 2,1 C2.552999973297119,1 3,0.5519999861717224 3,0 C3,-0.5529999732971191 2.552999973297119,-1 2,-1 C2,-1 -2,-1 -2,-1 C-2.552999973297119,-1 -3,-0.5529999732971191 -3,0 C-3,0.5519999861717224 -2.552999973297119,1 -2,1z"></path>
            </g>
            <g opacity="1" transform="matrix(1,0,0,1,29.48900032043457,41.54199981689453)">
                <path fill="rgb(141,108,159)" fill-opacity="1"
                    d=" M-15,0 C-15,0.5519999861717224 -14.552000045776367,1 -14,1 C-14,1 14,1 14,1 C14.553000450134277,1 15,0.5519999861717224 15,0 C15,-0.5529999732971191 14.553000450134277,-1 14,-1 C14,-1 -14,-1 -14,-1 C-14.552000045776367,-1 -15,-0.5529999732971191 -15,0z"></path>
            </g>
            <g opacity="1" transform="matrix(1,0,0,1,32.48899841308594,29.621999740600586)">
                <path fill="rgb(141,108,159)" fill-opacity="1"
                    d=" M29,-17.07900047302246 C29,-17.07900047302246 19.40999984741211,-17.07900047302246 19.40999984741211,-17.07900047302246 C19.40999984741211,-17.07900047302246 16.59000015258789,-17.07900047302246 16.59000015258789,-17.07900047302246 C16.59000015258789,-17.07900047302246 -2.5899999141693115,-17.07900047302246 -2.5899999141693115,-17.07900047302246 C-2.5899999141693115,-17.07900047302246 -5.409999847412109,-17.07900047302246 -5.409999847412109,-17.07900047302246 C-5.409999847412109,-17.07900047302246 -10.59000015258789,-17.07900047302246 -10.59000015258789,-17.07900047302246 C-10.59000015258789,-17.07900047302246 -13.420000076293945,-17.07900047302246 -13.420000076293945,-17.07900047302246 C-13.420000076293945,-17.07900047302246 -19,-17.07900047302246 -19,-17.07900047302246 C-19,-17.07900047302246 -21.280000686645508,-17.07900047302246 -21.280000686645508,-17.07900047302246 C-21.280000686645508,-17.07900047302246 -21.559999465942383,-20.6299991607666 -21.559999465942383,-20.6299991607666 C-21.770000457763672,-23.329999923706055 -23.518999099731445,-25.66699981689453 -26.049999237060547,-26.6299991607666 C-26.319000244140625,-28.264999389648438 -27.86199951171875,-29.371999740600586 -29.496999740600586,-29.104000091552734 C-31.131999969482422,-28.834999084472656 -32.23899841308594,-27.291000366210938 -31.97100067138672,-25.6560001373291 C-31.70199966430664,-24.020999908447266 -30.159000396728516,-22.913000106811523 -28.523000717163086,-23.18199920654297 C-27.642000198364258,-23.32699966430664 -26.871000289916992,-23.858999252319336 -26.420000076293945,-24.6299991607666 C-24.80299949645996,-23.871999740600586 -23.71299934387207,-22.308000564575195 -23.559999465942383,-20.52899932861328 C-23.559999465942383,-20.52899932861328 -20.770000457763672,14.729999542236328 -20.770000457763672,14.729999542236328 C-20.354999542236328,19.636999130249023 -16.74799919128418,23.68000030517578 -11.920000076293945,24.649999618530273 C-11.479000091552734,27.375999450683594 -8.91100025177002,29.22800064086914 -6.184999942779541,28.785999298095703 C-4.158999919891357,28.45800018310547 -2.5390000343322754,26.926000595092773 -2.0999999046325684,24.92099952697754 C-2.0999999046325684,24.92099952697754 8.100000381469727,24.92099952697754 8.100000381469727,24.92099952697754 C8.652000427246094,27.625999450683594 11.293000221252441,29.371000289916992 13.99899959564209,28.81800079345703 C16.704999923706055,28.267000198364258 18.450000762939453,25.625999450683594 17.898000717163086,22.92099952697754 C17.34600067138672,20.21500015258789 14.704999923706055,18.4689998626709 11.99899959564209,19.020999908447266 C10.03499984741211,19.422000885009766 8.50100040435791,20.957000732421875 8.100000381469727,22.92099952697754 C8.100000381469727,22.92099952697754 -2.0999999046325684,22.92099952697754 -2.0999999046325684,22.92099952697754 C-2.6760001182556152,20.219999313354492 -5.331999778747559,18.496999740600586 -8.032999992370605,19.07200050354004 C-9.871000289916992,19.46500015258789 -11.333999633789062,20.856000900268555 -11.819999694824219,22.67099952697754 C-14.805999755859375,21.966999053955078 -17.235000610351562,19.80500030517578 -18.280000686645508,16.92099952697754 C-18.280000686645508,16.92099952697754 20.3799991607666,16.92099952697754 20.3799991607666,16.92099952697754 C21.792999267578125,16.91900062561035 23.013999938964844,15.932000160217285 23.309999465942383,14.550000190734863 C23.309999465942383,14.550000190734863 28.809999465942383,-11.079000473022461 28.809999465942383,-11.079000473022461 C28.809999465942383,-11.079000473022461 29,-11.079000473022461 29,-11.079000473022461 C30.656999588012695,-11.079000473022461 32,-12.42199993133545 32,-14.079000473022461 C32,-15.736000061035156 30.656999588012695,-17.07900047302246 29,-17.07900047302246z M-29,-24.90999984741211 C-29.645999908447266,-24.90999984741211 -30.170000076293945,-25.433000564575195 -30.170000076293945,-26.07900047302246 C-30.170000076293945,-26.725000381469727 -29.645999908447266,-27.249000549316406 -29,-27.249000549316406 C-28.354000091552734,-27.249000549316406 -27.829999923706055,-26.725000381469727 -27.829999923706055,-26.07900047302246 C-27.829999923706055,-25.433000564575195 -28.354000091552734,-24.90999984741211 -29,-24.90999984741211z M13,20.709999084472656 C14.772000312805176,20.709999084472656 16.209999084472656,22.14900016784668 16.209999084472656,23.92099952697754 C16.209999084472656,25.69300079345703 14.772000312805176,27.1299991607666 13,27.1299991607666 C11.227999687194824,27.1299991607666 9.789999961853027,25.69300079345703 9.789999961853027,23.92099952697754 C9.789999961853027,22.14900016784668 11.227999687194824,20.709999084472656 13,20.709999084472656z M-10.25,23.92099952697754 C-10.25,22.125999450683594 -8.795000076293945,20.67099952697754 -7,20.67099952697754 C-7,20.67099952697754 -7,20.709999084472656 -7,20.709999084472656 C-5.204999923706055,20.709999084472656 -3.75,22.165000915527344 -3.75,23.959999084472656 C-3.75,25.7549991607666 -5.205999851226807,27.209999084472656 -7,27.209999084472656 C-8.795000076293945,27.209999084472656 -10.25,25.7549991607666 -10.25,23.959999084472656 C-10.25,23.959999084472656 -10.25,23.92099952697754 -10.25,23.92099952697754z M21.360000610351562,14.130000114440918 C21.260000228881836,14.598999977111816 20.84000015258789,14.932000160217285 20.360000610351562,14.920999526977539 C20.360000610351562,14.920999526977539 -18.739999771118164,14.920999526977539 -18.739999771118164,14.920999526977539 C-18.739999771118164,14.920999526977539 -18.739999771118164,14.630000114440918 -18.739999771118164,14.630000114440918 C-18.739999771118164,14.630000114440918 -20.809999465942383,-11.079000473022461 -20.809999465942383,-11.079000473022461 C-20.809999465942383,-11.079000473022461 26.760000228881836,-11.079000473022461 26.760000228881836,-11.079000473022461 C26.760000228881836,-11.079000473022461 21.360000610351562,14.130000114440918 21.360000610351562,14.130000114440918z M29,-13.079000473022461 C29,-13.079000473022461 -21,-13.079000473022461 -21,-13.079000473022461 C-21,-13.079000473022461 -21.15999984741211,-15.079000473022461 -21.15999984741211,-15.079000473022461 C-21.15999984741211,-15.079000473022461 29,-15.079000473022461 29,-15.079000473022461 C29.55299949645996,-15.079000473022461 30,-14.630999565124512 30,-14.079000473022461 C30,-13.527000427246094 29.55299949645996,-13.079000473022461 29,-13.079000473022461z"></path>
            </g>
        </g>
        <g clip-path="url(#__lottie_element_7)"
            transform="matrix(1,0,0,0.9921115040779114,9.722768783569336,22.046796798706055)"
            opacity="1" style="display: block;">
            <g opacity="1" transform="matrix(1,0,0,1,6.25,2.25)">
                <path fill="rgb(141,108,159)" fill-opacity="1"
                    d=" M0,2 C0.5519999861717224,2 1,1.5520000457763672 1,1 C1,1 1,-1 1,-1 C1,-1.5520000457763672 0.5519999861717224,-2 0,-2 C-0.5519999861717224,-2 -1,-1.5520000457763672 -1,-1 C-1,-1 -1,1 -1,1 C-1,1.5520000457763672 -0.5519999861717224,2 0,2z"></path>
            </g>
            <g opacity="1" transform="matrix(1,0,0,1,1.25,2.25)">
                <path fill="rgb(141,108,159)" fill-opacity="1"
                    d=" M0,2 C0.5519999861717224,2 1,1.5520000457763672 1,1 C1,1 1,-1 1,-1 C1,-1.5520000457763672 0.5519999861717224,-2 0,-2 C-0.5519999861717224,-2 -1,-1.5520000457763672 -1,-1 C-1,-1 -1,1 -1,1 C-1,1.5520000457763672 -0.5519999861717224,2 0,2z"></path>
            </g>
            <g opacity="1" transform="matrix(1,0,0,1,11.25,2.25)">
                <path fill="rgb(141,108,159)" fill-opacity="1"
                    d=" M0,2 C0.5519999861717224,2 1,1.5520000457763672 1,1 C1,1 1,-1 1,-1 C1,-1.5520000457763672 0.5519999861717224,-2 0,-2 C-0.5519999861717224,-2 -1,-1.5520000457763672 -1,-1 C-1,-1 -1,1 -1,1 C-1,1.5520000457763672 -0.5519999861717224,2 0,2z"></path>
            </g>
            <g opacity="1" transform="matrix(1,0,0,1,16.25,2.25)">
                <path fill="rgb(141,108,159)" fill-opacity="1"
                    d=" M0,2 C0.5519999861717224,2 1,1.5520000457763672 1,1 C1,1 1,-1 1,-1 C1,-1.5520000457763672 0.5519999861717224,-2 0,-2 C-0.5519999861717224,-2 -1,-1.5520000457763672 -1,-1 C-1,-1 -1,1 -1,1 C-1,1.5520000457763672 -0.5519999861717224,2 0,2z"></path>
            </g>
            <g opacity="1" transform="matrix(1,0,0,1,21.25,2.25)">
                <path fill="rgb(141,108,159)" fill-opacity="1"
                    d=" M0,2 C0.5519999861717224,2 1,1.5520000457763672 1,1 C1,1 1,-1 1,-1 C1,-1.5520000457763672 0.5519999861717224,-2 0,-2 C-0.5519999861717224,-2 -1,-1.5520000457763672 -1,-1 C-1,-1 -1,1 -1,1 C-1,1.5520000457763672 -0.5519999861717224,2 0,2z"></path>
            </g>
            <g opacity="1" transform="matrix(1,0,0,1,26.25,2.25)">
                <path fill="rgb(141,108,159)" fill-opacity="1"
                    d=" M0,2 C0.5529999732971191,2 1,1.5520000457763672 1,1 C1,1 1,-1 1,-1 C1,-1.5520000457763672 0.5529999732971191,-2 0,-2 C-0.5529999732971191,-2 -1,-1.5520000457763672 -1,-1 C-1,-1 -1,1 -1,1 C-1,1.5520000457763672 -0.5529999732971191,2 0,2z"></path>
            </g>
            <g opacity="1" transform="matrix(1,0,0,1,31.25,2.25)">
                <path fill="rgb(141,108,159)" fill-opacity="1"
                    d=" M0,2 C0.5529999732971191,2 1,1.5520000457763672 1,1 C1,1 1,-1 1,-1 C1,-1.5520000457763672 0.5529999732971191,-2 0,-2 C-0.5529999732971191,-2 -1,-1.5520000457763672 -1,-1 C-1,-1 -1,1 -1,1 C-1,1.5520000457763672 -0.5529999732971191,2 0,2z"></path>
            </g>
            <g opacity="1" transform="matrix(1,0,0,1,36.25,2.25)">
                <path fill="rgb(141,108,159)" fill-opacity="1"
                    d=" M0,2 C0.5529999732971191,2 1,1.5520000457763672 1,1 C1,1 1,-1 1,-1 C1,-1.5520000457763672 0.5529999732971191,-2 0,-2 C-0.5529999732971191,-2 -1,-1.5520000457763672 -1,-1 C-1,-1 -1,1 -1,1 C-1,1.5520000457763672 -0.5529999732971191,2 0,2z"></path>
            </g>
            <g opacity="1" transform="matrix(1,0,0,1,41.25,2.25)">
                <path fill="rgb(141,108,159)" fill-opacity="1"
                    d=" M0,2 C0.5529999732971191,2 1,1.5520000457763672 1,1 C1,1 1,-1 1,-1 C1,-1.5520000457763672 0.5529999732971191,-2 0,-2 C-0.5529999732971191,-2 -1,-1.5520000457763672 -1,-1 C-1,-1 -1,1 -1,1 C-1,1.5520000457763672 -0.5529999732971191,2 0,2z"></path>
            </g>
            <g opacity="1" transform="matrix(1,0,0,1,46.25,2.25)">
                <path fill="rgb(141,108,159)" fill-opacity="1"
                    d=" M0,2 C0.5529999732971191,2 1,1.5520000457763672 1,1 C1,1 1,-1 1,-1 C1,-1.5520000457763672 0.5529999732971191,-2 0,-2 C-0.5529999732971191,-2 -1,-1.5520000457763672 -1,-1 C-1,-1 -1,1 -1,1 C-1,1.5520000457763672 -0.5529999732971191,2 0,2z"></path>
            </g>
            <g opacity="1" transform="matrix(1,0,0,1,51.25,2.25)">
                <path fill="rgb(141,108,159)" fill-opacity="1"
                    d=" M0,2 C0.5529999732971191,2 1,1.5520000457763672 1,1 C1,1 1,-1 1,-1 C1,-1.5520000457763672 0.5529999732971191,-2 0,-2 C-0.5529999732971191,-2 -1,-1.5520000457763672 -1,-1 C-1,-1 -1,1 -1,1 C-1,1.5520000457763672 -0.5529999732971191,2 0,2z"></path>
            </g>
        </g>
    </g>
</svg>