<svg width="127" height="29" viewBox="0 0 127 29" fill="none" xmlns="http://www.w3.org/2000/svg">
<path d="M14.694 23.288C16.0873 23.288 17.392 22.9967 18.608 22.414C19.824 21.8313 20.9007 20.9953 21.838 19.906L25.448 23.478C24.1813 24.9727 22.56 26.1633 20.584 27.05C18.6333 27.9367 16.6193 28.38 14.542 28.38C12.5407 28.38 10.666 28.0253 8.918 27.316C7.19533 26.6067 5.70067 25.644 4.434 24.428C3.16733 23.212 2.16667 21.768 1.432 20.096C0.722667 18.424 0.368 16.6253 0.368 14.7C0.368 12.7747 0.735333 10.976 1.47 9.304C2.20467 7.60667 3.20533 6.15 4.472 4.934C5.73867 3.718 7.23333 2.75533 8.956 2.046C10.704 1.33667 12.566 0.981999 14.542 0.981999C16.67 0.981999 18.7347 1.438 20.736 2.35C22.7373 3.23667 24.3587 4.44 25.6 5.96L21.876 9.646C20.9387 8.48067 19.8367 7.594 18.57 6.986C17.3033 6.35267 15.9607 6.036 14.542 6.036C13.3513 6.036 12.224 6.264 11.16 6.72C10.1213 7.15067 9.222 7.75867 8.462 8.544C7.702 9.304 7.10667 10.216 6.676 11.28C6.24533 12.3187 6.03 13.4587 6.03 14.7C6.03 15.916 6.24533 17.056 6.676 18.12C7.132 19.1587 7.74 20.058 8.5 20.818C9.28533 21.578 10.1973 22.186 11.236 22.642C12.3 23.0727 13.4527 23.288 14.694 23.288ZM29.0874 28V8.202H34.2934V10.368C34.9267 9.50667 35.6867 8.86067 36.5734 8.43C37.4854 7.974 38.4861 7.746 39.5754 7.746C40.0821 7.77133 40.5001 7.822 40.8294 7.898C41.1841 7.94867 41.4881 8.05 41.7414 8.202V12.762C41.3614 12.5847 40.9434 12.458 40.4874 12.382C40.0314 12.2807 39.5627 12.23 39.0814 12.23C38.0681 12.23 37.1307 12.4833 36.2694 12.99C35.4334 13.4967 34.7747 14.2313 34.2934 15.194V28H29.0874ZM62.1032 25.53C60.8872 26.518 59.6332 27.24 58.3412 27.696C57.0745 28.152 55.6558 28.38 54.0852 28.38C52.5905 28.38 51.1845 28.114 49.8672 27.582C48.5752 27.05 47.4478 26.328 46.4852 25.416C45.5478 24.504 44.8005 23.4273 44.2432 22.186C43.7112 20.9193 43.4452 19.564 43.4452 18.12C43.4452 16.7013 43.6985 15.3713 44.2052 14.13C44.7372 12.8633 45.4592 11.774 46.3712 10.862C47.2832 9.92467 48.3598 9.19 49.6012 8.658C50.8678 8.126 52.2105 7.86 53.6292 7.86C55.0225 7.86 56.3145 8.13867 57.5052 8.696C58.7212 9.228 59.7598 9.96267 60.6212 10.9C61.5078 11.8373 62.1918 12.9647 62.6732 14.282C63.1798 15.574 63.4332 16.98 63.4332 18.5V19.868H48.6892C49.0438 21.1093 49.7278 22.11 50.7412 22.87C51.7545 23.63 52.9452 24.01 54.3132 24.01C55.1745 24.01 55.9852 23.8707 56.7452 23.592C57.5052 23.3133 58.1512 22.9207 58.6832 22.414L62.1032 25.53ZM53.5152 12.154C52.3245 12.154 51.2985 12.5213 50.4372 13.256C49.5758 13.9653 48.9805 14.928 48.6512 16.144H58.3412C58.0118 14.9787 57.4038 14.0287 56.5172 13.294C55.6558 12.534 54.6552 12.154 53.5152 12.154ZM73.5786 28.342C71.4506 28.342 69.7152 27.7847 68.3726 26.67C67.0299 25.53 66.3586 24.0607 66.3586 22.262C66.3586 20.3873 67.0806 18.918 68.5246 17.854C69.9686 16.79 71.9572 16.258 74.4906 16.258C75.3012 16.258 76.1119 16.3213 76.9226 16.448C77.7332 16.5747 78.5312 16.7647 79.3166 17.018V15.612C79.3166 14.472 78.9619 13.6107 78.2526 13.028C77.5432 12.4453 76.5046 12.154 75.1366 12.154C74.3006 12.154 73.3886 12.2933 72.4006 12.572C71.4379 12.8253 70.3359 13.2307 69.0946 13.788L67.1946 9.95C68.7399 9.24067 70.2346 8.70867 71.6786 8.354C73.1479 7.99933 74.5919 7.822 76.0106 7.822C78.6706 7.822 80.7352 8.468 82.2046 9.76C83.6992 11.0267 84.4466 12.8253 84.4466 15.156V28H79.3166V26.632C78.4806 27.2147 77.5939 27.6453 76.6566 27.924C75.7446 28.2027 74.7186 28.342 73.5786 28.342ZM71.3366 22.148C71.3366 22.908 71.6659 23.516 72.3246 23.972C72.9832 24.4027 73.8572 24.618 74.9466 24.618C75.8079 24.618 76.5932 24.5167 77.3026 24.314C78.0372 24.086 78.7086 23.7693 79.3166 23.364V20.4C78.6832 20.1467 78.0119 19.9693 77.3026 19.868C76.6186 19.7413 75.8966 19.678 75.1366 19.678C73.9459 19.678 73.0086 19.906 72.3246 20.362C71.6659 20.7927 71.3366 21.388 71.3366 22.148Z" fill="#061434"/>
<path d="M91.8447 22.414V12.572H87.7787V8.202H91.8447V3.148L97.0507 1.97V8.202H102.675V12.572H97.0507V21.35C97.0507 22.2873 97.2534 22.946 97.6587 23.326C98.064 23.706 98.7734 23.896 99.7867 23.896C100.268 23.896 100.724 23.8707 101.155 23.82C101.585 23.744 102.054 23.6173 102.561 23.44V27.696C102.003 27.8733 101.332 28.0127 100.547 28.114C99.7614 28.2407 99.09 28.304 98.5327 28.304C96.3287 28.304 94.6567 27.81 93.5167 26.822C92.402 25.8087 91.8447 24.3393 91.8447 22.414ZM104.915 18.12C104.915 16.676 105.181 15.3333 105.713 14.092C106.27 12.8253 107.017 11.736 107.955 10.824C108.917 9.88667 110.045 9.152 111.337 8.62C112.629 8.088 114.009 7.822 115.479 7.822C116.948 7.822 118.329 8.088 119.621 8.62C120.913 9.152 122.027 9.88667 122.965 10.824C123.927 11.736 124.675 12.8253 125.207 14.092C125.764 15.3333 126.043 16.676 126.043 18.12C126.043 19.564 125.764 20.9193 125.207 22.186C124.675 23.4273 123.927 24.504 122.965 25.416C122.027 26.328 120.913 27.05 119.621 27.582C118.329 28.114 116.948 28.38 115.479 28.38C114.009 28.38 112.629 28.114 111.337 27.582C110.045 27.05 108.917 26.328 107.955 25.416C107.017 24.504 106.27 23.4273 105.713 22.186C105.181 20.9193 104.915 19.564 104.915 18.12ZM115.479 23.858C116.999 23.858 118.291 23.3007 119.355 22.186C120.419 21.0713 120.951 19.716 120.951 18.12C120.951 16.4987 120.419 15.1307 119.355 14.016C118.291 12.9013 116.999 12.344 115.479 12.344C113.959 12.344 112.667 12.9013 111.603 14.016C110.539 15.1307 110.007 16.4987 110.007 18.12C110.007 19.716 110.539 21.0713 111.603 22.186C112.667 23.3007 113.959 23.858 115.479 23.858Z" fill="#F35C29"/>
</svg>
