<svg version="1.1" xmlns="http://www.w3.org/2000/svg" xmlns:xlink="http://www.w3.org/1999/xlink"
    width="48px" height="48px" viewBox="0,0,256,256">
    <g fill="none" fill-rule="nonzero" stroke="none" stroke-width="none" stroke-linecap="none"
        stroke-linejoin="none" stroke-miterlimit="10" stroke-dasharray="" stroke-dashoffset="0"
        font-family="none" font-weight="none" font-size="none" text-anchor="none"
        style="mix-blend-mode: normal">
        <g transform="scale(5.33333,5.33333)">
            <path
                d="M47.2,25.9c1.1,1.2 1.1,3 0,4.2c-3.5,3.7 -11.7,11 -21.2,11c-9.5,0 -17.6,-7.3 -21.2,-11c-1.1,-1.2 -1.1,-3 0,-4.2c3.5,-3.7 11.7,-11 21.2,-11c9.5,0 17.7,7.3 21.2,11z"
                fill="#ffffff" stroke="none" stroke-width="1" stroke-linecap="butt"
                stroke-linejoin="miter"></path>
            <path
                d="M31.9,12.5c6,2.4 10.8,6.8 13.2,9.4c1.1,1.2 1.1,3 0,4.2c-3.5,3.7 -11.7,11 -21.2,11c-5.1,0 -9.7,-2.1 -13.5,-4.6"
                fill="none" stroke="#000000" stroke-width="3" stroke-linecap="round"
                stroke-linejoin="round"></path>
            <path
                d="M5.7,28.8c-1.1,-1 -2.1,-2 -2.9,-2.8c-1.1,-1.2 -1.1,-3 0,-4.2c3.5,-3.7 11.7,-11 21.2,-11"
                fill="none" stroke="#000000" stroke-width="3" stroke-linecap="round"
                stroke-linejoin="round"></path>
            <path d="M34.9,18.9c0,0.3 0.1,0.7 0.1,1.1c0,6.1 -4.9,11 -11,11c-6.1,0 -11,-4.9 -11,-11"
                fill="none" stroke="#000000" stroke-width="3" stroke-linecap="round"
                stroke-linejoin="round"></path>
            <path
                d="M24,15c-2.8,0 -5,2.2 -5,5c0,2.8 2.2,5 5,5c2.8,0 5,-2.2 5,-5c0,-2.8 -2.2,-5 -5,-5z"
                fill="#000000" stroke="none" stroke-width="1" stroke-linecap="butt"
                stroke-linejoin="miter"></path>
        </g>
    </g>
</svg>