<svg version="1.1" xmlns="http://www.w3.org/2000/svg" xmlns:xlink="http://www.w3.org/1999/xlink"
    width="64px" height="64px" viewBox="0,0,256,256">
    <g fill="none" fill-rule="nonzero" stroke="none" stroke-width="1" stroke-linecap="butt"
        stroke-linejoin="miter" stroke-miterlimit="10" stroke-dasharray="" stroke-dashoffset="0"
        font-family="none" font-weight="none" font-size="none" text-anchor="none"
        style="mix-blend-mode: normal">
        <g transform="scale(4,4)">
            <path
                d="M49,31c-4.9,0 -8.6,-4.2 -9.8,-5.6l3.8,-3.4v-6h-4c-0.6,0 -1,0.4 -1,1v3l-1.2,0.8l-16.3,11.4c-3.5,2.4 -7.8,3.1 -11.9,2v0c-0.4,-0.1 -0.8,-0.2 -1.2,-0.2c-2.4,0 -4.4,2 -4.4,4.4v4.6h34.6c1.5,0 3,-0.5 4.2,-1.5c2.4,-2 5.9,-2 8.4,0c1.2,1 2.7,1.5 4.2,1.5h6.6v-4c-9.5,0 -12,-8 -12,-8z"
                fill="#ffffff"></path>
            <path d="M49,31c0,0 2.5,8 12,8v-16c0,0 -6.1,8 -12,8z" fill="#191b02"></path>
            <path
                d="M50.2,41.5c-2.4,-2 -5.9,-2 -8.4,0c-1.2,1 -2.7,1.5 -4.2,1.5h-34.6c0,2.2 1.8,4 4,4h1v2h6v-2h4v2h6v-2h4v2h6v-2c2.1,0 5.5,-0.3 8.1,-0.8c1,-0.2 2,-0.6 2.9,-1.2v0v4h6v-2h4v2h6v-6h-6.6c-1.6,0 -3,-0.5 -4.2,-1.5z"
                fill="#191b02"></path>
            <path
                d="M50.2,39.5c-2.4,-2 -5.9,-2 -8.4,0c-1.2,1 -2.7,1.5 -4.2,1.5h-34.6v2h34.6c1.5,0 3,-0.5 4.2,-1.5c2.4,-2 5.9,-2 8.4,0c1.2,1 2.7,1.5 4.2,1.5h6.6v-2h-6.6c-1.6,0 -3,-0.5 -4.2,-1.5z"
                fill="#925515"></path>
            <path d="M42,16v4.9l-2.8,2.5c0.2,0.3 -0.6,2.2 -0.2,2.6l4,-4v-2v-4z" fill="#925515"></path>
            <path
                d="M16.3,34.2l7.7,2.8c0.1,0 0.2,0.1 0.3,0.1c0.2,0 0.4,0 0.5,-0.1c0.3,-0.2 0.4,-0.4 0.5,-0.7l0.9,-6.2l5.9,1.5c0.3,0.1 0.6,0 0.8,-0.1c0.2,-0.2 0.4,-0.4 0.4,-0.7l1.4,-8.5l-2.3,1.6l-0.9,5.5l-5,-1.4l-2.2,1.5l-0.8,5.1l-4.4,-1.6c-0.9,0.5 -1.9,0.9 -2.8,1.2z"
                fill="#191b02"></path>
            <path
                d="M39.6,25.8c-0.2,-0.2 -0.3,-0.3 -0.4,-0.5l0.6,-0.5c0,-0.8 -0.2,-1.7 -0.7,-2.4l-1.5,-2.1l-0.8,0.6l-0.8,0.5l1.4,2.1c0.6,0.9 0.4,2.2 -0.5,2.8l-16.5,11.2c-0.9,0.6 -2.2,0.4 -2.8,-0.6l-2,-2.6c-0.7,0.2 -1.5,0.3 -2.3,0.3l2.6,3.4c0.8,1.1 2,1.8 3.3,1.8c0.8,0 1.5,-0.2 2.2,-0.7l16.6,-11.2c0.8,-0.5 1.3,-1.2 1.6,-2.1z"
                fill="#000000"></path>
            <path
                d="M60,16h-0.6c-0.2,0 -0.4,0.1 -0.6,0.2l-1.8,1.4c-1.7,1.4 -4.2,1.2 -5.8,-0.3c-0.8,-0.8 -1.9,-1.3 -3.1,-1.3h-5.1v6l-3.8,3.4c1.2,1.5 4.9,5.6 9.8,5.6c5.9,0 12,-8 12,-8v-6c0,-0.6 -0.4,-1 -1,-1z"
                fill="#000000"></path>
        </g>
    </g>
</svg>