<svg version="1.1" xmlns="http://www.w3.org/2000/svg" xmlns:xlink="http://www.w3.org/1999/xlink"
    width="48px" height="48px" viewBox="0,0,256,256">
    <g fill="none" fill-rule="nonzero" stroke="none" stroke-width="none" stroke-linecap="none"
        stroke-linejoin="none" stroke-miterlimit="10" stroke-dasharray="" stroke-dashoffset="0"
        font-family="none" font-weight="none" font-size="none" text-anchor="none"
        style="mix-blend-mode: normal">
        <g transform="scale(5.33333,5.33333)">
            <path
                d="M44.9,15h-32c-0.6,0 -1.1,0.6 -1,1.2l3.1,16.5c0.4,2.5 2.6,4.3 5.2,4.3h20v0c2.5,0 4.7,-1.8 5.1,-4.3l2.6,-14c0.5,-1.9 -1,-3.7 -3,-3.7z"
                fill="#ffffff" stroke="none" stroke-width="1" stroke-linecap="butt"
                stroke-linejoin="miter"></path>
            <path d="M26.5,25.5v-8" fill="none" stroke="#000000" stroke-width="3"
                stroke-linecap="round" stroke-linejoin="round"></path>
            <path d="M22.5,21.5h8" fill="none" stroke="#000000" stroke-width="3"
                stroke-linecap="round" stroke-linejoin="round"></path>
            <path d="M26.1,32.5h-8.5c-2.4,0 -4.5,-1.7 -4.9,-4.1l-3.2,-16.9" fill="none"
                stroke="#000000" stroke-width="3" stroke-linecap="round" stroke-linejoin="round"></path>
            <path d="M18,11.5h22.9c1.9,0 3.3,1.7 2.9,3.6l-2.5,13.3c-0.4,2.4 -2.5,4.1 -4.9,4.1"
                fill="none" stroke="#000000" stroke-width="3" stroke-linecap="round"
                stroke-linejoin="round"></path>
            <path d="M9.5,11.5l-0.3,-1.6c-0.3,-1.4 -1.5,-2.4 -2.9,-2.4h-2.8" fill="none"
                stroke="#000000" stroke-width="3" stroke-linecap="round" stroke-linejoin="round"></path>
            <circle cx="20" cy="39" r="3" fill="#000000" stroke="none" stroke-width="1"
                stroke-linecap="butt" stroke-linejoin="miter"></circle>
            <circle cx="34" cy="39" r="3" fill="#000000" stroke="none" stroke-width="1"
                stroke-linecap="butt" stroke-linejoin="miter"></circle>
        </g>
    </g>
</svg>